<?xml version="1.0" encoding="utf-8"?>
<!-- Designed by Vexels.com - 2020 All Rights Reserved - https://vexels.com/terms-and-conditions/  -->
<svg version="1.1" id="Capa_1" xmlns="http://www.w3.org/2000/svg" xmlns:xlink="http://www.w3.org/1999/xlink" x="0px" y="0px"
	 viewBox="0 0 1200 1200" enable-background="new 0 0 1200 1200" xml:space="preserve">
<g>
	<path fill="none" d="M429.975,401.995l1.732-3.112C431.06,399.872,430.479,400.91,429.975,401.995z"/>
	<polygon fill="none" points="267.425,517.235 267.425,517.235 272.114,516.388 272.094,513.619 272.113,516.388 	"/>
	<path fill="#4F74B1" d="M1148.445,602.082c-3.857-9.672-20.297-13.191-20.297-13.191s4.522-73.988-0.693-96.986
		c-5.214-22.998-113.729-12.524-113.729-12.524c-7.731-21.768-37.091-66.417-84.058-101.241
		c-46.967-34.823-216.164-34.827-216.164-34.827c-278.461,1.988-283.611,55.808-283.678,58.867c-0.002,0.089,0,0.141,0,0.141
		c0.049-0.109,0.1-0.218,0.149-0.326c0.504-1.085,1.085-2.123,1.732-3.112c4.502-6.878,12.279-11.32,20.866-11.892
		c190.205-12.652,289.628-7.406,326.887-1.716c37.921,5.791,39.374,32.453,39.374,32.453s4.16,52.103,4.264,66.651
		c0.104,14.548-23.277,11.684-23.277,11.684c-7.714-1.226-15.396-2.367-23.046-3.44c1.16-3.36,1.841-7.203,1.81-11.601
		c-0.122-17.045-16.305-20.285-27.934-16.708c-3.885,1.195-7.261,3.15-9.362,5.605c-6.076,7.102-15.085,19.599-15.004,30.969
		c0.063,8.816,9.005,10.725,13.029,11.141l0.051,7.117l-5.404,0.976l-0.047-6.706c0,0-8.593,0.047-12.755-4.92
		c-82.033,26.419-128.728,50.945-128.728,50.945c-1.953,0.688-3.175-1.953-1.36-2.93c49.301-26.549,93.981-43.323,127.911-53.952
		c-0.006-0.14-0.036-0.262-0.037-0.406c-0.037-5.277,1.894-10.792,4.57-15.903c-193.426-19.306-351.766,5.597-351.766,5.597
		c-2.763,0.906-4.503,2.291-5.607,3.684c9.595-1.137,25.955-2.159,52.895-2.806c139.927-7.568,181.94,0.225,181.94,0.225
		c-151.217-0.679-185.381,8.435-198.084,10.414c-2.052,0.32-4.085,0.799-6.057,1.451c-123.202,40.754-194.498,84.517-194.498,84.517
		c-1.899,0.814-3.306-1.741-1.564-2.834c105.932-66.511,192.297-82.66,187.211-84.431c-5.404-1.881-26.275,0.099-26.275,0.099
		s-2.22-0.405-4.301-1.051c-13.687,1.523-46.57,5.508-85.316,12.505l0.019,2.769l-4.689,0.847l0,0l4.688-0.847l-0.019-2.769
		l-0.016-2.237l4.403-0.032c7.339-0.053,23.435-7.215,23.294-26.947s-25.085-18.144-32.364-9.635
		c-5.272,6.163-13.09,17.008-13.019,26.874c0.07,9.866,12.989,9.774,12.989,9.774l0.022,3.06
		c-68.82,12.714-153.96,34.775-182.886,69.14c-51.333,60.986-7.877,134.632-7.877,134.632s-21.91,0.69-26.229,12.303
		c-0.138,0.37-0.312,0.717-0.413,1.109c5.853-7.198,25.42-7.662,25.42-7.662c3.416-0.025,6.485-0.003,9.402,0.038
		c2.669,3.022,7.542,5.073,13.175,5.086l442.668,1.039c0.633,0.033,1.241,0.168,1.884,0.16c63.809-0.8,75.528-1.632,90.997-2.33
		c20.981-0.946,32.023,0.506,37.841,2.391c0.615-22.057,5.387-61.286,31.103-68.532c11.426-3.219,21.591,7.311,30.153,23.213
		c-6.215-7.692-17.98-17.236-24.32-15.549c-16.644,4.43-30.982,40.234-30.629,89.589c0.097,13.67,1.267,26.61,3.27,38.181
		c-4.1-14.558-7.628-31.964-9.395-51.813c0,0-0.224-3.22-0.257-8.364c-41.005,8.633-94.458,9.021-94.458,9.021l-372.807,2.663
		c0.914,10.454,2.626,21.517,5.241,32.905c4.149,18.073,9.994,34.681,16.769,48.713c-7.098-8.393-29.394-37.011-36.38-81.514
		l-71.146,0.508l-2.756,3.085c-3.614,2.073-10.418,4.372-21.824,2.854c-14.156-1.885-32.541-5.225-40.984-11.593
		c1.97,2.461,4.719,4.61,7.953,6.504c8.766,5.133,21.122,8.312,31.741,10.389c0.862,0.169,1.757,0.358,2.593,0.512
		c18.965,3.502,25.201-7.454,25.201-7.454c0.623,87.288,59.974,88.076,59.974,88.076s13.889-0.099,47.979-0.343
		c34.09-0.243,51.351-58.561,51.351-58.561c0.104,14.548-3.624,23.061-3.624,23.061l55.554-0.397c0,0,136.361-0.974,190.653-1.362
		c54.292-0.388,68.483-30.799,68.483-30.799c0.546,76.376,48.057,83.311,48.057,83.311s34.09-0.244,71.968-0.514
		c37.879-0.271,44.822-88.825,44.822-88.825l14.088-0.1c-0.42-13.224-2.146-54.813-7.829-82.283
		c-6.832-33.025-33.235-35.651-33.235-35.651c32.938-5.865,42.757,34.88,42.757,34.88l9.47,82.974l147.404-45.911l18.938-0.135
		c0.26,36.37,30.658,49.489,30.658,49.489s15.151-0.108,53.029-0.379c37.878-0.27,40.938-102.133,40.938-102.133
		c0.006-0.003,0.013-0.005,0.02-0.008c0.016-0.664,0.033-1.484,0.048-2.369c0.174-9.393,0.268-30.322-1.879-44.731
		c-2.841-19.07-17.838-21.353-17.838-21.353c19.004-2.375,23.303,21.194,23.303,21.194l2.568,44.676
		c38.171-16.692,41.487-35.334,41.487-35.334C1151.108,621.461,1152.302,611.754,1148.445,602.082z M200.352,639.106
		c16.142-10.12,69.087-13.917,120.837-15.257c51.75-1.34,79.618,1.576,121.903,23.524c27.486,14.266,40.796,17.626,46.746,18.231
		c7.535,0.765,14.453,4.635,18.282,10.913c2.42,3.969,4.235,9.284,4.429,16.356l0.612,10.147c0.117,1.928,0.422,3.801,0.893,5.605
		H134.368c1.083-15.035,5.28-31.38,17.133-39.102c2.111-1.605,4.705-2.946,7.898-3.887
		C181.952,658.987,184.209,649.226,200.352,639.106z M550.052,705.773c-2.31,0.017-4.488-0.586-6.402-1.654
		c-4.825-1.514-8.405-6.647-8.449-12.789c-0.044-6.142,3.462-11.325,8.266-12.908c1.898-1.095,4.067-1.728,6.377-1.745
		c7.531-0.054,13.683,6.416,13.74,14.451C563.641,699.162,557.582,705.719,550.052,705.773z M80.924,594.025
		c1.869-2.086,3.941-4.179,6.186-6.186c6.133-7.179,14.149-13.336,23.643-13.403c0.084-0.001,0.158,0.011,0.242,0.012
		c2.987-0.766,6.103-1.222,9.354-1.245c31.041-0.222,18.643,41.868,18.643,41.868s-13.772,47.519-50.456,47.781
		c-7.581,0.054-12.801-2.127-16.355-5.59c-6.519-5.014-8.237-13.872-8.007-22.472C64.576,619.77,70.717,605.417,80.924,594.025z
		 M68.971,683.749c-0.051-7.122,4.668-12.957,10.655-13.376c1.681-0.809,3.54-1.274,5.504-1.288
		c7.531-0.054,13.682,6.416,13.74,14.451c0.058,8.034-6,14.591-13.533,14.645c-1.963,0.014-3.829-0.424-5.521-1.209
		C73.825,696.637,69.022,690.871,68.971,683.749z M600.182,610.03c0,0-13.772,47.519-50.457,47.781
		c-7.58,0.054-12.801-2.127-16.355-5.59c-6.519-5.014-8.237-13.872-8.007-22.472c0.403-15.019,6.544-29.372,16.751-40.764
		c1.869-2.085,3.941-4.179,6.185-6.185c6.133-7.18,14.149-13.336,23.644-13.404c0.084,0,0.157,0.011,0.241,0.012
		c2.987-0.766,6.103-1.222,9.355-1.245C612.581,567.94,600.182,610.03,600.182,610.03z M712.135,844.005
		c-13.558,0.097-24.817-37.157-25.146-83.209c-0.328-46.052,10.396-83.463,23.955-83.559c13.559-0.097,30.924,37.114,31.252,83.165
		C742.526,806.454,725.694,843.909,712.135,844.005z M741.257,512.151c0,0-0.194,0-0.533-0.016
		C741.064,512.151,741.258,512.151,741.257,512.151l0.057,7.918L741.257,512.151z M746.718,519.093l-0.05-6.981L746.718,519.093
		L746.718,519.093z M974.913,548.942c2.669-0.36,2.503,3.366-0.173,3.875l-135.773,27.395c-0.581,4.084-1.072,8.065-1.515,11.985
		l142.829-21.848c2.704-0.419,2.539,3.304-0.17,3.873l-143.932,30.973c-0.401,4.986-0.69,9.806-0.89,14.479l128.331-22.868
		c3.552-0.734,3.389,2.986,0.638,3.623L834.959,632.37c-0.453,49.504,9.327,78.076,9.327,78.076l55.061-9.886
		c1.569-0.282,2.156,1.749,0.629,2.179l-59.414,16.72c0,0-11.476-15.643-11.901-75.172c-0.426-59.529,11.88-104.547,11.88-104.547
		l0.179,0.157l160.556-20.153c2.831-0.355,2.67,3.37-0.166,3.875l-157.2,28.51c-1.065,5.103-2.006,10.091-2.856,14.988
		L974.913,548.942z M996.551,461.318c0,0,10.197,13.263-2.413,15.778c-10.447,2.084-110.099,15.625-143.958,20.207
		c-6.113,0.827-11.706-3.394-12.322-9.291l-8.359-80.058c0,0-1.437-24.238,27.604-24.445c29.039-0.207,42.937,0.906,59.376,4.426
		C932.919,391.454,972.242,416.633,996.551,461.318z M1061.746,694.805c-0.788,33.53-11.561,60.497-19.599,60.328
		c-8.038-0.17-13.915-27.488-13.126-61.018c0.788-33.53,7.942-60.574,15.978-60.404
		C1053.036,633.88,1062.534,661.275,1061.746,694.805z M1045.532,622.133c-16.402,0.117-29.439,36.664-29.117,81.629
		c0.104,14.69,1.622,28.461,4.191,40.342c-3.82-7.825-12.572-38.239-8.935-73.025c0,0,4.998-52.296,31.662-55.529
		c8.428-1.022,14.341,7.504,18.492,19.638C1057.106,626.894,1051.508,622.09,1045.532,622.133z"/>
	<path fill="#605652" d="M167.423,673.563c-0.268,0.094-0.559,0.184-0.832,0.278c0.048,0.078,0.098,0.152,0.146,0.231
		L167.423,673.563z"/>
	<path fill="none" stroke="#605652" stroke-width="0" stroke-linecap="round" stroke-linejoin="round" d="M424.737,423.604
		c-0.018,0.068-0.03,0.112-0.03,0.112"/>
</g>
</svg>
